<?xml version="1.0" encoding="UTF-8"?>
<svg width="512px" height="512px" viewBox="0 0 512 512" version="1.1" xmlns="http://www.w3.org/2000/svg">
  <g stroke="none" stroke-width="1" fill="none" fill-rule="evenodd">
    <rect fill="#3B82F6" x="0" y="0" width="512" height="512" rx="128"></rect>
    <g transform="translate(85, 64)" fill="#FFFFFF" fill-rule="nonzero">
      <path d="M170,21 C253,21 320,88 320,171 L320,278 C320,335 274,381 217,381 L123,381 C66,381 20,335 20,278 L20,171 C20,88 87,21 170,21 Z M170,64 C111,64 63,112 63,171 L63,278 C63,311 90,338 123,338 L217,338 C250,338 277,311 277,278 L277,171 C277,112 229,64 170,64 Z" opacity="0.2"></path>
      <path d="M240,43 L240,193 C240,220 221,231 197,215 L182,204 C178,201 170,201 166,204 L150,215 C127,231 107,220 107,193 L107,43 C107,35 114,29 122,29 L225,29 C233,29 240,35 240,43 Z"></path>
    </g>
  </g>
</svg>